{
  "accessors": [
    {
      "bufferView": 2,
      "componentType": 5126,
      "count": 9763,
      "max": [
        6.669000148773193,
        0.14880000054836273,
        26.791799545288086
      ],
      "min": [
        -6.669000148773193,
        -35.33449935913086,
        -26.791799545288086
      ],
      "type": "VEC3"
    },
    {
      "bufferView": 2,
      "byteOffset": 117156,
      "componentType": 5126,
      "count": 9763,
      "max": [
        0.999983549118042,
        0.9997689127922058,
        0.9995546936988831
      ],
      "min": [
        -0.999983549118042,
        -0.999987006187439,
        -0.9999966621398926
      ],
      "type": "VEC3"
    },
    {
      "bufferView": 1,
      "componentType": 5126,
      "count": 9763,
      "max": [
        0.984000027179718,
        0.9839000105857849
      ],
      "min": [
        0.022199999541044235,
        0.01720000058412552
      ],
      "type": "VEC2"
    },
    {
      "bufferView": 0,
      "componentType": 5125,
      "count": 55668,
      "type": "SCALAR"
    }
  ],
  "asset": {
    "extras": {
      "author": "Tech developers (https://sketchfab.com/Deepu.Dra)",
      "license": "CC-BY-4.0 (http://creativecommons.org/licenses/by/4.0/)",
      "source": "https://sketchfab.com/3d-models/3d-dog-cute-206d1a40d4654d1e940c9ec05b2cc14f",
      "title": "3d dog cute"
    },
    "generator": "Sketchfab-12.67.0",
    "version": "2.0"
  },
  "bufferViews": [
    {
      "buffer": 0,
      "byteLength": 222672,
      "name": "floatBufferViews",
      "target": 34963
    },
    {
      "buffer": 0,
      "byteLength": 78104,
      "byteOffset": 222672,
      "byteStride": 8,
      "name": "floatBufferViews",
      "target": 34962
    },
    {
      "buffer": 0,
      "byteLength": 234312,
      "byteOffset": 300776,
      "byteStride": 12,
      "name": "floatBufferViews",
      "target": 34962
    }
  ],
  "buffers": [
    {
      "byteLength": 535088,
      "uri": "scene.bin"
    }
  ],
  "images": [
    {
      "uri": "textures/material_baseColor.jpeg"
    }
  ],
  "materials": [
    {
      "doubleSided": true,
      "emissiveTexture": {
        "index": 0
      },
      "name": "material",
      "pbrMetallicRoughness": {
        "baseColorTexture": {
          "index": 0
        },
        "metallicFactor": 0.0761056611032197,
        "roughnessFactor": 0.9839954853096496
      }
    }
  ],
  "meshes": [
    {
      "name": "Object_0",
      "primitives": [
        {
          "attributes": {
            "NORMAL": 1,
            "POSITION": 0,
            "TEXCOORD_0": 2
          },
          "indices": 3,
          "material": 0,
          "mode": 4
        }
      ]
    }
  ],
  "nodes": [
    {
      "children": [
        1
      ],
      "matrix": [
        3.7201952934265137,
        1.0538455177913232e-15,
        2.545651936051517e-31,
        0.0,
        -1.4890681060942137e-31,
        1.4243023154908556e-15,
        -3.7201952934265137,
        0.0,
        -1.0538455177913232e-15,
        3.7201952934265137,
        1.4243023154908556e-15,
        0.0,
        -7.199780051661553e-21,
        2.8291374776744094e-15,
        6.281947135088138e-31,
        1.0
      ],
      "name": "Sketchfab_model"
    },
    {
      "children": [
        2
      ],
      "name": "12228_Dog_v1_L2.obj.cleaner.materialmerger.gles"
    },
    {
      "mesh": 0,
      "name": "Object_2"
    }
  ],
  "samplers": [
    {
      "magFilter": 9729,
      "minFilter": 9987,
      "wrapS": 10497,
      "wrapT": 10497
    }
  ],
  "scene": 0,
  "scenes": [
    {
      "name": "Sketchfab_Scene",
      "nodes": [
        0
      ]
    }
  ],
  "textures": [
    {
      "sampler": 0,
      "source": 0
    }
  ]
}
